# MagicaVoxel @ ephtracy

# material
mtllib cama.mtl
usemtl palette

# normals
vn -1 0 0
vn 1 0 0
vn 0 0 1
vn 0 0 -1
vn 0 -1 0
vn 0 1 0

# texcoords
vt 0.0292969 0.5
vt 0.970703 0.5
vt 0.982422 0.5

# verts
v -8.5 0 18
v -8.5 0 16
v -8.5 0 -16
v -8.5 0 -18
v -8.5 4 16
v -8.5 4 -16
v -8.5 6 18
v -8.5 6 -18
v -8.5 9 18
v -8.5 9 -6
v -8.5 9 -18
v -8.5 10 18
v -8.5 10 -6
v -7.5 9 -9
v -7.5 9 -16
v -7.5 12 -9
v -7.5 12 -16
v 7.5 9 -9
v 7.5 9 -16
v 7.5 12 -9
v 7.5 12 -16
v 8.5 0 18
v 8.5 0 16
v 8.5 0 -16
v 8.5 0 -18
v 8.5 4 16
v 8.5 4 -16
v 8.5 6 18
v 8.5 6 -18
v 8.5 9 18
v 8.5 9 -6
v 8.5 9 -18
v 8.5 10 18
v 8.5 10 -6
v -8.5 0 18
v -8.5 6 18
v -8.5 9 18
v -8.5 10 18
v 8.5 0 18
v 8.5 6 18
v 8.5 9 18
v 8.5 10 18
v -7.5 9 -9
v -7.5 12 -9
v 7.5 9 -9
v 7.5 12 -9
v -8.5 0 -16
v -8.5 4 -16
v 8.5 0 -16
v 8.5 4 -16
v -8.5 0 16
v -8.5 4 16
v 8.5 0 16
v 8.5 4 16
v -8.5 9 -6
v -8.5 10 -6
v 8.5 9 -6
v 8.5 10 -6
v -7.5 9 -16
v -7.5 12 -16
v 7.5 9 -16
v 7.5 12 -16
v -8.5 0 -18
v -8.5 6 -18
v -8.5 9 -18
v 8.5 0 -18
v 8.5 6 -18
v 8.5 9 -18
v -8.5 0 18
v 8.5 0 18
v -8.5 0 16
v 8.5 0 16
v -8.5 0 -16
v 8.5 0 -16
v -8.5 0 -18
v 8.5 0 -18
v -8.5 4 16
v 8.5 4 16
v -8.5 4 -16
v 8.5 4 -16
v -8.5 9 -6
v 8.5 9 -6
v -7.5 9 -9
v 7.5 9 -9
v -7.5 9 -16
v 7.5 9 -16
v -8.5 9 -18
v 8.5 9 -18
v -8.5 10 18
v 8.5 10 18
v -8.5 10 -6
v 8.5 10 -6
v -7.5 12 -9
v 7.5 12 -9
v -7.5 12 -16
v 7.5 12 -16

# faces
f 5/2/1 2/2/1 1/2/1
f 6/2/1 4/2/1 3/2/1
f 7/2/1 5/2/1 1/2/1
f 7/2/1 6/2/1 5/2/1
f 8/2/1 4/2/1 6/2/1
f 8/2/1 6/2/1 7/2/1
f 9/1/1 8/1/1 7/1/1
f 10/1/1 8/1/1 9/1/1
f 11/1/1 8/1/1 10/1/1
f 12/3/1 10/3/1 9/3/1
f 13/3/1 10/3/1 12/3/1
f 16/1/1 15/1/1 14/1/1
f 17/1/1 15/1/1 16/1/1
f 18/1/2 19/1/2 20/1/2
f 20/1/2 19/1/2 21/1/2
f 22/2/2 23/2/2 26/2/2
f 24/2/2 25/2/2 27/2/2
f 22/2/2 26/2/2 28/2/2
f 26/2/2 27/2/2 28/2/2
f 27/2/2 25/2/2 29/2/2
f 28/2/2 27/2/2 29/2/2
f 28/1/2 29/1/2 30/1/2
f 30/1/2 29/1/2 31/1/2
f 31/1/2 29/1/2 32/1/2
f 30/3/2 31/3/2 33/3/2
f 33/3/2 31/3/2 34/3/2
f 39/2/3 36/2/3 35/2/3
f 40/1/3 37/1/3 36/1/3
f 40/2/3 36/2/3 39/2/3
f 41/3/3 38/3/3 37/3/3
f 41/1/3 37/1/3 40/1/3
f 42/3/3 38/3/3 41/3/3
f 45/1/3 44/1/3 43/1/3
f 46/1/3 44/1/3 45/1/3
f 49/2/3 48/2/3 47/2/3
f 50/2/3 48/2/3 49/2/3
f 51/2/4 52/2/4 53/2/4
f 53/2/4 52/2/4 54/2/4
f 55/3/4 56/3/4 57/3/4
f 57/3/4 56/3/4 58/3/4
f 59/1/4 60/1/4 61/1/4
f 61/1/4 60/1/4 62/1/4
f 63/2/4 64/2/4 66/2/4
f 64/1/4 65/1/4 67/1/4
f 66/2/4 64/2/4 67/2/4
f 67/1/4 65/1/4 68/1/4
f 71/2/5 70/2/5 69/2/5
f 72/2/5 70/2/5 71/2/5
f 75/2/5 74/2/5 73/2/5
f 76/2/5 74/2/5 75/2/5
f 79/2/5 78/2/5 77/2/5
f 80/2/5 78/2/5 79/2/5
f 81/1/6 82/1/6 83/1/6
f 83/1/6 82/1/6 84/1/6
f 81/1/6 83/1/6 85/1/6
f 84/1/6 82/1/6 86/1/6
f 81/1/6 85/1/6 87/1/6
f 85/1/6 86/1/6 87/1/6
f 86/1/6 82/1/6 88/1/6
f 87/1/6 86/1/6 88/1/6
f 89/3/6 90/3/6 91/3/6
f 91/3/6 90/3/6 92/3/6
f 93/1/6 94/1/6 95/1/6
f 95/1/6 94/1/6 96/1/6
