# MagicaVoxel @ ephtracy

# material
mtllib tirobasixo.mtl
usemtl palette

# normals
vn -1 0 0
vn 1 0 0
vn 0 0 1
vn 0 0 -1
vn 0 -1 0
vn 0 1 0

# texcoords
vt 0.306641 0.5
vt 0.974609 0.5
vt 0.986328 0.5

# verts
v -5.5 0 2.5
v -5.5 0 -2.5
v -5.5 1 2.5
v -5.5 1 -2.5
v -5.5 2 2.5
v -5.5 2 -2.5
v -5.5 3 2.5
v -5.5 3 -2.5
v -4.5 0 3.5
v -4.5 0 2.5
v -4.5 0 -2.5
v -4.5 0 -3.5
v -4.5 1 3.5
v -4.5 1 2.5
v -4.5 1 -2.5
v -4.5 1 -3.5
v -4.5 2 3.5
v -4.5 2 2.5
v -4.5 2 -2.5
v -4.5 2 -3.5
v -4.5 3 3.5
v -4.5 3 2.5
v -4.5 3 -2.5
v -4.5 3 -3.5
v -3.5 0 4.5
v -3.5 0 3.5
v -3.5 0 -3.5
v -3.5 0 -4.5
v -3.5 1 4.5
v -3.5 1 3.5
v -3.5 1 -3.5
v -3.5 1 -4.5
v -3.5 2 4.5
v -3.5 2 3.5
v -3.5 2 -3.5
v -3.5 2 -4.5
v -3.5 3 4.5
v -3.5 3 3.5
v -3.5 3 -3.5
v -3.5 3 -4.5
v -2.5 0 5.5
v -2.5 0 4.5
v -2.5 0 -4.5
v -2.5 0 -5.5
v -2.5 1 5.5
v -2.5 1 4.5
v -2.5 1 -4.5
v -2.5 1 -5.5
v -2.5 2 5.5
v -2.5 2 4.5
v -2.5 2 -4.5
v -2.5 2 -5.5
v -2.5 3 5.5
v -2.5 3 4.5
v -2.5 3 -4.5
v -2.5 3 -5.5
v 0.5 0 0.5
v 0.5 0 -0.5
v 0.5 1 0.5
v 0.5 1 -0.5
v 0.5 2 0.5
v 0.5 2 -0.5
v 0.5 3 0.5
v 0.5 3 -0.5
v -0.5 0 0.5
v -0.5 0 -0.5
v -0.5 1 0.5
v -0.5 1 -0.5
v -0.5 2 0.5
v -0.5 2 -0.5
v -0.5 3 0.5
v -0.5 3 -0.5
v 2.5 0 5.5
v 2.5 0 4.5
v 2.5 0 -4.5
v 2.5 0 -5.5
v 2.5 1 5.5
v 2.5 1 4.5
v 2.5 1 -4.5
v 2.5 1 -5.5
v 2.5 2 5.5
v 2.5 2 4.5
v 2.5 2 -4.5
v 2.5 2 -5.5
v 2.5 3 5.5
v 2.5 3 4.5
v 2.5 3 -4.5
v 2.5 3 -5.5
v 3.5 0 4.5
v 3.5 0 3.5
v 3.5 0 -3.5
v 3.5 0 -4.5
v 3.5 1 4.5
v 3.5 1 3.5
v 3.5 1 -3.5
v 3.5 1 -4.5
v 3.5 2 4.5
v 3.5 2 3.5
v 3.5 2 -3.5
v 3.5 2 -4.5
v 3.5 3 4.5
v 3.5 3 3.5
v 3.5 3 -3.5
v 3.5 3 -4.5
v 4.5 0 3.5
v 4.5 0 2.5
v 4.5 0 -2.5
v 4.5 0 -3.5
v 4.5 1 3.5
v 4.5 1 2.5
v 4.5 1 -2.5
v 4.5 1 -3.5
v 4.5 2 3.5
v 4.5 2 2.5
v 4.5 2 -2.5
v 4.5 2 -3.5
v 4.5 3 3.5
v 4.5 3 2.5
v 4.5 3 -2.5
v 4.5 3 -3.5
v 5.5 0 2.5
v 5.5 0 -2.5
v 5.5 1 2.5
v 5.5 1 -2.5
v 5.5 2 2.5
v 5.5 2 -2.5
v 5.5 3 2.5
v 5.5 3 -2.5
v -2.5 0 5.5
v -2.5 1 5.5
v -2.5 2 5.5
v -2.5 3 5.5
v 2.5 0 5.5
v 2.5 1 5.5
v 2.5 2 5.5
v 2.5 3 5.5
v -3.5 0 4.5
v -3.5 1 4.5
v -3.5 2 4.5
v -3.5 3 4.5
v -2.5 0 4.5
v -2.5 1 4.5
v -2.5 2 4.5
v -2.5 3 4.5
v 2.5 0 4.5
v 2.5 1 4.5
v 2.5 2 4.5
v 2.5 3 4.5
v 3.5 0 4.5
v 3.5 1 4.5
v 3.5 2 4.5
v 3.5 3 4.5
v -4.5 0 3.5
v -4.5 1 3.5
v -4.5 2 3.5
v -4.5 3 3.5
v -3.5 0 3.5
v -3.5 1 3.5
v -3.5 2 3.5
v -3.5 3 3.5
v 3.5 0 3.5
v 3.5 1 3.5
v 3.5 2 3.5
v 3.5 3 3.5
v 4.5 0 3.5
v 4.5 1 3.5
v 4.5 2 3.5
v 4.5 3 3.5
v -5.5 0 2.5
v -5.5 1 2.5
v -5.5 2 2.5
v -5.5 3 2.5
v -4.5 0 2.5
v -4.5 1 2.5
v -4.5 2 2.5
v -4.5 3 2.5
v 4.5 0 2.5
v 4.5 1 2.5
v 4.5 2 2.5
v 4.5 3 2.5
v 5.5 0 2.5
v 5.5 1 2.5
v 5.5 2 2.5
v 5.5 3 2.5
v -0.5 0 -0.5
v -0.5 1 -0.5
v -0.5 2 -0.5
v -0.5 3 -0.5
v 0.5 0 -0.5
v 0.5 1 -0.5
v 0.5 2 -0.5
v 0.5 3 -0.5
v -0.5 0 0.5
v -0.5 1 0.5
v -0.5 2 0.5
v -0.5 3 0.5
v 0.5 0 0.5
v 0.5 1 0.5
v 0.5 2 0.5
v 0.5 3 0.5
v -5.5 0 -2.5
v -5.5 1 -2.5
v -5.5 2 -2.5
v -5.5 3 -2.5
v -4.5 0 -2.5
v -4.5 1 -2.5
v -4.5 2 -2.5
v -4.5 3 -2.5
v 4.5 0 -2.5
v 4.5 1 -2.5
v 4.5 2 -2.5
v 4.5 3 -2.5
v 5.5 0 -2.5
v 5.5 1 -2.5
v 5.5 2 -2.5
v 5.5 3 -2.5
v -4.5 0 -3.5
v -4.5 1 -3.5
v -4.5 2 -3.5
v -4.5 3 -3.5
v -3.5 0 -3.5
v -3.5 1 -3.5
v -3.5 2 -3.5
v -3.5 3 -3.5
v 3.5 0 -3.5
v 3.5 1 -3.5
v 3.5 2 -3.5
v 3.5 3 -3.5
v 4.5 0 -3.5
v 4.5 1 -3.5
v 4.5 2 -3.5
v 4.5 3 -3.5
v -3.5 0 -4.5
v -3.5 1 -4.5
v -3.5 2 -4.5
v -3.5 3 -4.5
v -2.5 0 -4.5
v -2.5 1 -4.5
v -2.5 2 -4.5
v -2.5 3 -4.5
v 2.5 0 -4.5
v 2.5 1 -4.5
v 2.5 2 -4.5
v 2.5 3 -4.5
v 3.5 0 -4.5
v 3.5 1 -4.5
v 3.5 2 -4.5
v 3.5 3 -4.5
v -2.5 0 -5.5
v -2.5 1 -5.5
v -2.5 2 -5.5
v -2.5 3 -5.5
v 2.5 0 -5.5
v 2.5 1 -5.5
v 2.5 2 -5.5
v 2.5 3 -5.5
v -2.5 0 5.5
v 2.5 0 5.5
v -3.5 0 4.5
v -2.5 0 4.5
v 2.5 0 4.5
v 3.5 0 4.5
v -4.5 0 3.5
v -3.5 0 3.5
v -2.5 0 3.5
v 2.5 0 3.5
v 3.5 0 3.5
v 4.5 0 3.5
v -5.5 0 2.5
v -4.5 0 2.5
v -3.5 0 2.5
v 3.5 0 2.5
v 4.5 0 2.5
v 5.5 0 2.5
v -0.5 0 0.5
v 0.5 0 0.5
v -0.5 0 -0.5
v 0.5 0 -0.5
v -5.5 0 -2.5
v -4.5 0 -2.5
v -3.5 0 -2.5
v 3.5 0 -2.5
v 4.5 0 -2.5
v 5.5 0 -2.5
v -4.5 0 -3.5
v -3.5 0 -3.5
v -2.5 0 -3.5
v 2.5 0 -3.5
v 3.5 0 -3.5
v 4.5 0 -3.5
v -3.5 0 -4.5
v -2.5 0 -4.5
v 2.5 0 -4.5
v 3.5 0 -4.5
v -2.5 0 -5.5
v 2.5 0 -5.5
v -2.5 3 5.5
v 2.5 3 5.5
v -3.5 3 4.5
v -2.5 3 4.5
v 2.5 3 4.5
v 3.5 3 4.5
v -4.5 3 3.5
v -3.5 3 3.5
v -2.5 3 3.5
v 2.5 3 3.5
v 3.5 3 3.5
v 4.5 3 3.5
v -5.5 3 2.5
v -4.5 3 2.5
v -3.5 3 2.5
v 3.5 3 2.5
v 4.5 3 2.5
v 5.5 3 2.5
v -0.5 3 0.5
v 0.5 3 0.5
v -0.5 3 -0.5
v 0.5 3 -0.5
v -5.5 3 -2.5
v -4.5 3 -2.5
v -3.5 3 -2.5
v 3.5 3 -2.5
v 4.5 3 -2.5
v 5.5 3 -2.5
v -4.5 3 -3.5
v -3.5 3 -3.5
v -2.5 3 -3.5
v 2.5 3 -3.5
v 3.5 3 -3.5
v 4.5 3 -3.5
v -3.5 3 -4.5
v -2.5 3 -4.5
v 2.5 3 -4.5
v 3.5 3 -4.5
v -2.5 3 -5.5
v 2.5 3 -5.5

# faces
f 3/3/1 2/3/1 1/3/1
f 4/3/1 2/3/1 3/3/1
f 5/2/1 4/2/1 3/2/1
f 6/2/1 4/2/1 5/2/1
f 7/3/1 6/3/1 5/3/1
f 8/3/1 6/3/1 7/3/1
f 13/3/1 10/3/1 9/3/1
f 14/3/1 10/3/1 13/3/1
f 15/3/1 12/3/1 11/3/1
f 16/3/1 12/3/1 15/3/1
f 17/2/1 14/2/1 13/2/1
f 18/2/1 14/2/1 17/2/1
f 19/2/1 16/2/1 15/2/1
f 20/2/1 16/2/1 19/2/1
f 21/3/1 18/3/1 17/3/1
f 22/3/1 18/3/1 21/3/1
f 23/3/1 20/3/1 19/3/1
f 24/3/1 20/3/1 23/3/1
f 29/3/1 26/3/1 25/3/1
f 30/3/1 26/3/1 29/3/1
f 31/3/1 28/3/1 27/3/1
f 32/3/1 28/3/1 31/3/1
f 33/2/1 30/2/1 29/2/1
f 34/2/1 30/2/1 33/2/1
f 35/2/1 32/2/1 31/2/1
f 36/2/1 32/2/1 35/2/1
f 37/3/1 34/3/1 33/3/1
f 38/3/1 34/3/1 37/3/1
f 39/3/1 36/3/1 35/3/1
f 40/3/1 36/3/1 39/3/1
f 45/3/1 42/3/1 41/3/1
f 46/3/1 42/3/1 45/3/1
f 47/3/1 44/3/1 43/3/1
f 48/3/1 44/3/1 47/3/1
f 49/2/1 46/2/1 45/2/1
f 50/2/1 46/2/1 49/2/1
f 51/2/1 48/2/1 47/2/1
f 52/2/1 48/2/1 51/2/1
f 53/3/1 50/3/1 49/3/1
f 54/3/1 50/3/1 53/3/1
f 55/3/1 52/3/1 51/3/1
f 56/3/1 52/3/1 55/3/1
f 59/2/1 58/2/1 57/2/1
f 60/2/1 58/2/1 59/2/1
f 61/1/1 60/1/1 59/1/1
f 62/1/1 60/1/1 61/1/1
f 63/2/1 62/2/1 61/2/1
f 64/2/1 62/2/1 63/2/1
f 65/2/2 66/2/2 67/2/2
f 67/2/2 66/2/2 68/2/2
f 67/3/2 68/3/2 69/3/2
f 69/3/2 68/3/2 70/3/2
f 69/2/2 70/2/2 71/2/2
f 71/2/2 70/2/2 72/2/2
f 73/3/2 74/3/2 77/3/2
f 77/3/2 74/3/2 78/3/2
f 75/3/2 76/3/2 79/3/2
f 79/3/2 76/3/2 80/3/2
f 77/2/2 78/2/2 81/2/2
f 81/2/2 78/2/2 82/2/2
f 79/2/2 80/2/2 83/2/2
f 83/2/2 80/2/2 84/2/2
f 81/3/2 82/3/2 85/3/2
f 85/3/2 82/3/2 86/3/2
f 83/3/2 84/3/2 87/3/2
f 87/3/2 84/3/2 88/3/2
f 89/3/2 90/3/2 93/3/2
f 93/3/2 90/3/2 94/3/2
f 91/3/2 92/3/2 95/3/2
f 95/3/2 92/3/2 96/3/2
f 93/2/2 94/2/2 97/2/2
f 97/2/2 94/2/2 98/2/2
f 95/2/2 96/2/2 99/2/2
f 99/2/2 96/2/2 100/2/2
f 97/3/2 98/3/2 101/3/2
f 101/3/2 98/3/2 102/3/2
f 99/3/2 100/3/2 103/3/2
f 103/3/2 100/3/2 104/3/2
f 105/3/2 106/3/2 109/3/2
f 109/3/2 106/3/2 110/3/2
f 107/3/2 108/3/2 111/3/2
f 111/3/2 108/3/2 112/3/2
f 109/2/2 110/2/2 113/2/2
f 113/2/2 110/2/2 114/2/2
f 111/2/2 112/2/2 115/2/2
f 115/2/2 112/2/2 116/2/2
f 113/3/2 114/3/2 117/3/2
f 117/3/2 114/3/2 118/3/2
f 115/3/2 116/3/2 119/3/2
f 119/3/2 116/3/2 120/3/2
f 121/3/2 122/3/2 123/3/2
f 123/3/2 122/3/2 124/3/2
f 123/2/2 124/2/2 125/2/2
f 125/2/2 124/2/2 126/2/2
f 125/3/2 126/3/2 127/3/2
f 127/3/2 126/3/2 128/3/2
f 133/3/3 130/3/3 129/3/3
f 134/2/3 131/2/3 130/2/3
f 134/3/3 130/3/3 133/3/3
f 135/3/3 132/3/3 131/3/3
f 135/2/3 131/2/3 134/2/3
f 136/3/3 132/3/3 135/3/3
f 141/3/3 138/3/3 137/3/3
f 142/2/3 139/2/3 138/2/3
f 142/3/3 138/3/3 141/3/3
f 143/3/3 140/3/3 139/3/3
f 143/2/3 139/2/3 142/2/3
f 144/3/3 140/3/3 143/3/3
f 149/3/3 146/3/3 145/3/3
f 150/2/3 147/2/3 146/2/3
f 150/3/3 146/3/3 149/3/3
f 151/3/3 148/3/3 147/3/3
f 151/2/3 147/2/3 150/2/3
f 152/3/3 148/3/3 151/3/3
f 157/3/3 154/3/3 153/3/3
f 158/2/3 155/2/3 154/2/3
f 158/3/3 154/3/3 157/3/3
f 159/3/3 156/3/3 155/3/3
f 159/2/3 155/2/3 158/2/3
f 160/3/3 156/3/3 159/3/3
f 165/3/3 162/3/3 161/3/3
f 166/2/3 163/2/3 162/2/3
f 166/3/3 162/3/3 165/3/3
f 167/3/3 164/3/3 163/3/3
f 167/2/3 163/2/3 166/2/3
f 168/3/3 164/3/3 167/3/3
f 173/3/3 170/3/3 169/3/3
f 174/2/3 171/2/3 170/2/3
f 174/3/3 170/3/3 173/3/3
f 175/3/3 172/3/3 171/3/3
f 175/2/3 171/2/3 174/2/3
f 176/3/3 172/3/3 175/3/3
f 181/3/3 178/3/3 177/3/3
f 182/2/3 179/2/3 178/2/3
f 182/3/3 178/3/3 181/3/3
f 183/3/3 180/3/3 179/3/3
f 183/2/3 179/2/3 182/2/3
f 184/3/3 180/3/3 183/3/3
f 189/2/3 186/2/3 185/2/3
f 190/1/3 187/1/3 186/1/3
f 190/2/3 186/2/3 189/2/3
f 191/2/3 188/2/3 187/2/3
f 191/1/3 187/1/3 190/1/3
f 192/2/3 188/2/3 191/2/3
f 193/2/4 194/2/4 197/2/4
f 194/1/4 195/1/4 198/1/4
f 197/2/4 194/2/4 198/2/4
f 195/2/4 196/2/4 199/2/4
f 198/1/4 195/1/4 199/1/4
f 199/2/4 196/2/4 200/2/4
f 201/3/4 202/3/4 205/3/4
f 202/2/4 203/2/4 206/2/4
f 205/3/4 202/3/4 206/3/4
f 203/3/4 204/3/4 207/3/4
f 206/2/4 203/2/4 207/2/4
f 207/3/4 204/3/4 208/3/4
f 209/3/4 210/3/4 213/3/4
f 210/2/4 211/2/4 214/2/4
f 213/3/4 210/3/4 214/3/4
f 211/3/4 212/3/4 215/3/4
f 214/2/4 211/2/4 215/2/4
f 215/3/4 212/3/4 216/3/4
f 217/3/4 218/3/4 221/3/4
f 218/2/4 219/2/4 222/2/4
f 221/3/4 218/3/4 222/3/4
f 219/3/4 220/3/4 223/3/4
f 222/2/4 219/2/4 223/2/4
f 223/3/4 220/3/4 224/3/4
f 225/3/4 226/3/4 229/3/4
f 226/2/4 227/2/4 230/2/4
f 229/3/4 226/3/4 230/3/4
f 227/3/4 228/3/4 231/3/4
f 230/2/4 227/2/4 231/2/4
f 231/3/4 228/3/4 232/3/4
f 233/3/4 234/3/4 237/3/4
f 234/2/4 235/2/4 238/2/4
f 237/3/4 234/3/4 238/3/4
f 235/3/4 236/3/4 239/3/4
f 238/2/4 235/2/4 239/2/4
f 239/3/4 236/3/4 240/3/4
f 241/3/4 242/3/4 245/3/4
f 242/2/4 243/2/4 246/2/4
f 245/3/4 242/3/4 246/3/4
f 243/3/4 244/3/4 247/3/4
f 246/2/4 243/2/4 247/2/4
f 247/3/4 244/3/4 248/3/4
f 249/3/4 250/3/4 253/3/4
f 250/2/4 251/2/4 254/2/4
f 253/3/4 250/3/4 254/3/4
f 251/3/4 252/3/4 255/3/4
f 254/2/4 251/2/4 255/2/4
f 255/3/4 252/3/4 256/3/4
f 260/3/5 258/3/5 257/3/5
f 261/3/5 258/3/5 260/3/5
f 264/3/5 260/3/5 259/3/5
f 265/2/5 261/2/5 260/2/5
f 265/3/5 260/3/5 264/3/5
f 266/3/5 262/3/5 261/3/5
f 266/2/5 261/2/5 265/2/5
f 267/3/5 262/3/5 266/3/5
f 270/3/5 264/3/5 263/3/5
f 271/2/5 265/2/5 264/2/5
f 271/2/5 266/2/5 265/2/5
f 271/3/5 264/3/5 270/3/5
f 271/2/5 267/2/5 266/2/5
f 272/3/5 268/3/5 267/3/5
f 272/2/5 267/2/5 271/2/5
f 273/3/5 268/3/5 272/3/5
f 275/2/5 271/2/5 270/2/5
f 275/2/5 272/2/5 271/2/5
f 275/2/5 273/2/5 272/2/5
f 276/2/5 273/2/5 275/2/5
f 277/2/5 275/2/5 270/2/5
f 278/2/5 273/2/5 276/2/5
f 279/3/5 270/3/5 269/3/5
f 280/2/5 278/2/5 277/2/5
f 280/3/5 270/3/5 279/3/5
f 280/2/5 277/2/5 270/2/5
f 281/2/5 278/2/5 280/2/5
f 282/2/5 273/2/5 278/2/5
f 282/2/5 278/2/5 281/2/5
f 283/3/5 274/3/5 273/3/5
f 283/2/5 273/2/5 282/2/5
f 284/3/5 274/3/5 283/3/5
f 285/3/5 281/3/5 280/3/5
f 286/2/5 282/2/5 281/2/5
f 286/3/5 281/3/5 285/3/5
f 287/2/5 282/2/5 286/2/5
f 288/2/5 282/2/5 287/2/5
f 289/3/5 283/3/5 282/3/5
f 289/2/5 282/2/5 288/2/5
f 290/3/5 283/3/5 289/3/5
f 291/3/5 287/3/5 286/3/5
f 292/2/5 288/2/5 287/2/5
f 292/3/5 287/3/5 291/3/5
f 293/3/5 289/3/5 288/3/5
f 293/2/5 288/2/5 292/2/5
f 294/3/5 289/3/5 293/3/5
f 295/3/5 293/3/5 292/3/5
f 296/3/5 293/3/5 295/3/5
f 297/3/6 298/3/6 300/3/6
f 300/3/6 298/3/6 301/3/6
f 299/3/6 300/3/6 304/3/6
f 300/2/6 301/2/6 305/2/6
f 304/3/6 300/3/6 305/3/6
f 301/3/6 302/3/6 306/3/6
f 305/2/6 301/2/6 306/2/6
f 306/3/6 302/3/6 307/3/6
f 303/3/6 304/3/6 310/3/6
f 304/2/6 305/2/6 311/2/6
f 305/2/6 306/2/6 311/2/6
f 310/3/6 304/3/6 311/3/6
f 306/2/6 307/2/6 311/2/6
f 307/3/6 308/3/6 312/3/6
f 311/2/6 307/2/6 312/2/6
f 312/3/6 308/3/6 313/3/6
f 310/2/6 311/2/6 315/2/6
f 311/2/6 312/2/6 315/2/6
f 312/2/6 313/2/6 315/2/6
f 315/2/6 313/2/6 316/2/6
f 310/2/6 315/2/6 317/2/6
f 316/2/6 313/2/6 318/2/6
f 309/3/6 310/3/6 319/3/6
f 317/2/6 318/2/6 320/2/6
f 319/3/6 310/3/6 320/3/6
f 310/2/6 317/2/6 320/2/6
f 320/2/6 318/2/6 321/2/6
f 318/2/6 313/2/6 322/2/6
f 321/2/6 318/2/6 322/2/6
f 313/3/6 314/3/6 323/3/6
f 322/2/6 313/2/6 323/2/6
f 323/3/6 314/3/6 324/3/6
f 320/3/6 321/3/6 325/3/6
f 321/2/6 322/2/6 326/2/6
f 325/3/6 321/3/6 326/3/6
f 326/2/6 322/2/6 327/2/6
f 327/2/6 322/2/6 328/2/6
f 322/3/6 323/3/6 329/3/6
f 328/2/6 322/2/6 329/2/6
f 329/3/6 323/3/6 330/3/6
f 326/3/6 327/3/6 331/3/6
f 327/2/6 328/2/6 332/2/6
f 331/3/6 327/3/6 332/3/6
f 328/3/6 329/3/6 333/3/6
f 332/2/6 328/2/6 333/2/6
f 333/3/6 329/3/6 334/3/6
f 332/3/6 333/3/6 335/3/6
f 335/3/6 333/3/6 336/3/6
